<?xml version="1.0" encoding="utf-8" standalone="no"?>
<!DOCTYPE svg PUBLIC "-//W3C//DTD SVG 1.1//EN"
  "http://www.w3.org/Graphics/SVG/1.1/DTD/svg11.dtd">
<svg xmlns:xlink="http://www.w3.org/1999/xlink" width="856.8pt" height="732.038437pt" viewBox="0 0 856.8 732.038437" xmlns="http://www.w3.org/2000/svg" version="1.1">
 <metadata>
  <rdf:RDF xmlns:dc="http://purl.org/dc/elements/1.1/" xmlns:cc="http://creativecommons.org/ns#" xmlns:rdf="http://www.w3.org/1999/02/22-rdf-syntax-ns#">
   <cc:Work>
    <dc:type rdf:resource="http://purl.org/dc/dcmitype/StillImage"/>
    <dc:date>2026-08-02T23:47:11.191311</dc:date>
    <dc:format>image/svg+xml</dc:format>
    <dc:creator>
     <cc:Agent>
      <dc:title>Matplotlib v3.11.1, https://matplotlib.org/</dc:title>
     </cc:Agent>
    </dc:creator>
   </cc:Work>
  </rdf:RDF>
 </metadata>
 <defs>
  <style type="text/css">*{stroke-linejoin: round; stroke-linecap: butt}</style>
 </defs>
 <g id="figure_1">
  <g id="patch_1">
   <path d="M 0 732.038437
L 856.8 732.038437
L 856.8 0
L 0 0
z
" style="fill: #ffffff"/>
  </g>
  <g id="axes_1">
   <g id="patch_2">
    <path d="M 61.022344 260.243698
L 849.6 260.243698
L 849.6 73.273906
L 61.022344 73.273906
z
" style="fill: #ffffff"/>
   </g>
   <g id="matplotlib.axis_1">
    <g id="xtick_1">
     <g id="line2d_1">
      <path d="M 122.204381 260.243698
L 122.204381 73.273906
" clip-path="url(#p717d990cad)" style="fill: none; stroke: #d9e2e8; stroke-opacity: 0.45; stroke-width: 0.6; stroke-linecap: round"/>
     </g>
    </g>
    <g id="xtick_2">
     <g id="line2d_2">
      <path d="M 222.866251 260.243698
L 222.866251 73.273906
" clip-path="url(#p717d990cad)" style="fill: none; stroke: #d9e2e8; stroke-opacity: 0.45; stroke-width: 0.6; stroke-linecap: round"/>
     </g>
    </g>
    <g id="xtick_3">
     <g id="line2d_3">
      <path d="M 323.390417 260.243698
L 323.390417 73.273906
" clip-path="url(#p717d990cad)" style="fill: none; stroke: #d9e2e8; stroke-opacity: 0.45; stroke-width: 0.6; stroke-linecap: round"/>
     </g>
    </g>
    <g id="xtick_4">
     <g id="line2d_4">
      <path d="M 424.052287 260.243698
L 424.052287 73.273906
" clip-path="url(#p717d990cad)" style="fill: none; stroke: #d9e2e8; stroke-opacity: 0.45; stroke-width: 0.6; stroke-linecap: round"/>
     </g>
    </g>
    <g id="xtick_5">
     <g id="line2d_5">
      <path d="M 524.576453 260.243698
L 524.576453 73.273906
" clip-path="url(#p717d990cad)" style="fill: none; stroke: #d9e2e8; stroke-opacity: 0.45; stroke-width: 0.6; stroke-linecap: round"/>
     </g>
    </g>
    <g id="xtick_6">
     <g id="line2d_6">
      <path d="M 625.238324 260.243698
L 625.238324 73.273906
" clip-path="url(#p717d990cad)" style="fill: none; stroke: #d9e2e8; stroke-opacity: 0.45; stroke-width: 0.6; stroke-linecap: round"/>
     </g>
    </g>
    <g id="xtick_7">
     <g id="line2d_7">
      <path d="M 725.76249 260.243698
L 725.76249 73.273906
" clip-path="url(#p717d990cad)" style="fill: none; stroke: #d9e2e8; stroke-opacity: 0.45; stroke-width: 0.6; stroke-linecap: round"/>
     </g>
    </g>
    <g id="xtick_8">
     <g id="line2d_8">
      <path d="M 826.42436 260.243698
L 826.42436 73.273906
" clip-path="url(#p717d990cad)" style="fill: none; stroke: #d9e2e8; stroke-opacity: 0.45; stroke-width: 0.6; stroke-linecap: round"/>
     </g>
    </g>
   </g>
   <g id="matplotlib.axis_2">
    <g id="ytick_1">
     <g id="line2d_9">
      <path d="M 61.022344 235.857875
L 849.6 235.857875
" clip-path="url(#p717d990cad)" style="fill: none; stroke: #d9e2e8; stroke-opacity: 0.25; stroke-width: 0.6; stroke-linecap: round"/>
     </g>
     <g id="text_1">
      <!-- 2 -->
      <g style="fill: #17202a" transform="translate(44.523594 240.036586) scale(0.11 -0.11)">
       <defs>
        <path id="DejaVuSans-15" d="M 1228 531
L 3431 531
L 3431 0
L 469 0
L 469 531
Q 828 903 1448 1529
Q 2069 2156 2228 2338
Q 2531 2678 2651 2914
Q 2772 3150 2772 3378
Q 2772 3750 2511 3984
Q 2250 4219 1831 4219
Q 1534 4219 1204 4116
Q 875 4013 500 3803
L 500 4441
Q 881 4594 1212 4672
Q 1544 4750 1819 4750
Q 2544 4750 2975 4387
Q 3406 4025 3406 3419
Q 3406 3131 3298 2873
Q 3191 2616 2906 2266
Q 2828 2175 2409 1742
Q 1991 1309 1228 531
z
" transform="scale(0.015625)"/>
       </defs>
       <use xlink:href="#DejaVuSans-15"/>
      </g>
     </g>
    </g>
    <g id="ytick_2">
     <g id="line2d_10">
      <path d="M 61.022344 210.388583
L 849.6 210.388583
" clip-path="url(#p717d990cad)" style="fill: none; stroke: #d9e2e8; stroke-opacity: 0.25; stroke-width: 0.6; stroke-linecap: round"/>
     </g>
     <g id="text_2">
      <!-- 4 -->
      <g style="fill: #17202a" transform="translate(44.523594 214.567294) scale(0.11 -0.11)">
       <defs>
        <path id="DejaVuSans-17" d="M 2419 4116
L 825 1625
L 2419 1625
L 2419 4116
z
M 2253 4666
L 3047 4666
L 3047 1625
L 3713 1625
L 3713 1100
L 3047 1100
L 3047 0
L 2419 0
L 2419 1100
L 313 1100
L 313 1709
L 2253 4666
z
" transform="scale(0.015625)"/>
       </defs>
       <use xlink:href="#DejaVuSans-17"/>
      </g>
     </g>
    </g>
    <g id="ytick_3">
     <g id="line2d_11">
      <path d="M 61.022344 184.919292
L 849.6 184.919292
" clip-path="url(#p717d990cad)" style="fill: none; stroke: #d9e2e8; stroke-opacity: 0.25; stroke-width: 0.6; stroke-linecap: round"/>
     </g>
     <g id="text_3">
      <!-- 6 -->
      <g style="fill: #17202a" transform="translate(44.523594 189.098003) scale(0.11 -0.11)">
       <defs>
        <path id="DejaVuSans-19" d="M 2113 2584
Q 1688 2584 1439 2293
Q 1191 2003 1191 1497
Q 1191 994 1439 701
Q 1688 409 2113 409
Q 2538 409 2786 701
Q 3034 994 3034 1497
Q 3034 2003 2786 2293
Q 2538 2584 2113 2584
z
M 3366 4563
L 3366 3988
Q 3128 4100 2886 4159
Q 2644 4219 2406 4219
Q 1781 4219 1451 3797
Q 1122 3375 1075 2522
Q 1259 2794 1537 2939
Q 1816 3084 2150 3084
Q 2853 3084 3261 2657
Q 3669 2231 3669 1497
Q 3669 778 3244 343
Q 2819 -91 2113 -91
Q 1303 -91 875 529
Q 447 1150 447 2328
Q 447 3434 972 4092
Q 1497 4750 2381 4750
Q 2619 4750 2861 4703
Q 3103 4656 3366 4563
z
" transform="scale(0.015625)"/>
       </defs>
       <use xlink:href="#DejaVuSans-19"/>
      </g>
     </g>
    </g>
    <g id="ytick_4">
     <g id="line2d_12">
      <path d="M 61.022344 159.45
L 849.6 159.45
" clip-path="url(#p717d990cad)" style="fill: none; stroke: #d9e2e8; stroke-opacity: 0.25; stroke-width: 0.6; stroke-linecap: round"/>
     </g>
     <g id="text_4">
      <!-- 8 -->
      <g style="fill: #17202a" transform="translate(44.523594 163.628711) scale(0.11 -0.11)">
       <defs>
        <path id="DejaVuSans-1b" d="M 2034 2216
Q 1584 2216 1326 1975
Q 1069 1734 1069 1313
Q 1069 891 1326 650
Q 1584 409 2034 409
Q 2484 409 2743 651
Q 3003 894 3003 1313
Q 3003 1734 2745 1975
Q 2488 2216 2034 2216
z
M 1403 2484
Q 997 2584 770 2862
Q 544 3141 544 3541
Q 544 4100 942 4425
Q 1341 4750 2034 4750
Q 2731 4750 3128 4425
Q 3525 4100 3525 3541
Q 3525 3141 3298 2862
Q 3072 2584 2669 2484
Q 3125 2378 3379 2068
Q 3634 1759 3634 1313
Q 3634 634 3220 271
Q 2806 -91 2034 -91
Q 1263 -91 848 271
Q 434 634 434 1313
Q 434 1759 690 2068
Q 947 2378 1403 2484
z
M 1172 3481
Q 1172 3119 1398 2916
Q 1625 2713 2034 2713
Q 2441 2713 2670 2916
Q 2900 3119 2900 3481
Q 2900 3844 2670 4047
Q 2441 4250 2034 4250
Q 1625 4250 1398 4047
Q 1172 3844 1172 3481
z
" transform="scale(0.015625)"/>
       </defs>
       <use xlink:href="#DejaVuSans-1b"/>
      </g>
     </g>
    </g>
    <g id="ytick_5">
     <g id="line2d_13">
      <path d="M 61.022344 133.980709
L 849.6 133.980709
" clip-path="url(#p717d990cad)" style="fill: none; stroke: #d9e2e8; stroke-opacity: 0.25; stroke-width: 0.6; stroke-linecap: round"/>
     </g>
     <g id="text_5">
      <!-- 10 -->
      <g style="fill: #17202a" transform="translate(37.524844 138.15942) scale(0.11 -0.11)">
       <defs>
        <path id="DejaVuSans-14" d="M 794 531
L 1825 531
L 1825 4091
L 703 3866
L 703 4441
L 1819 4666
L 2450 4666
L 2450 531
L 3481 531
L 3481 0
L 794 0
L 794 531
z
" transform="scale(0.015625)"/>
        <path id="DejaVuSans-13" d="M 2034 4250
Q 1547 4250 1301 3770
Q 1056 3291 1056 2328
Q 1056 1369 1301 889
Q 1547 409 2034 409
Q 2525 409 2770 889
Q 3016 1369 3016 2328
Q 3016 3291 2770 3770
Q 2525 4250 2034 4250
z
M 2034 4750
Q 2819 4750 3233 4129
Q 3647 3509 3647 2328
Q 3647 1150 3233 529
Q 2819 -91 2034 -91
Q 1250 -91 836 529
Q 422 1150 422 2328
Q 422 3509 836 4129
Q 1250 4750 2034 4750
z
" transform="scale(0.015625)"/>
       </defs>
       <use xlink:href="#DejaVuSans-14"/>
       <use xlink:href="#DejaVuSans-13" transform="translate(63.625 0)"/>
      </g>
     </g>
    </g>
    <g id="ytick_6">
     <g id="line2d_14">
      <path d="M 61.022344 108.511418
L 849.6 108.511418
" clip-path="url(#p717d990cad)" style="fill: none; stroke: #d9e2e8; stroke-opacity: 0.25; stroke-width: 0.6; stroke-linecap: round"/>
     </g>
     <g id="text_6">
      <!-- 12 -->
      <g style="fill: #17202a" transform="translate(37.524844 112.690129) scale(0.11 -0.11)">
       <use xlink:href="#DejaVuSans-14"/>
       <use xlink:href="#DejaVuSans-15" transform="translate(63.625 0)"/>
      </g>
     </g>
    </g>
    <g id="ytick_7">
     <g id="line2d_15">
      <path d="M 61.022344 83.042126
L 849.6 83.042126
" clip-path="url(#p717d990cad)" style="fill: none; stroke: #d9e2e8; stroke-opacity: 0.25; stroke-width: 0.6; stroke-linecap: round"/>
     </g>
     <g id="text_7">
      <!-- 14 -->
      <g style="fill: #17202a" transform="translate(37.524844 87.220837) scale(0.11 -0.11)">
       <use xlink:href="#DejaVuSans-14"/>
       <use xlink:href="#DejaVuSans-17" transform="translate(63.625 0)"/>
      </g>
     </g>
    </g>
    <g id="text_8">
     <!-- Sector median -->
     <g style="fill: #17202a" transform="translate(31.1225 203.165833) rotate(-90) scale(0.1 -0.1)">
      <defs>
       <path id="DejaVuSans-36" d="M 3425 4513
L 3425 3897
Q 3066 4069 2747 4153
Q 2428 4238 2131 4238
Q 1616 4238 1336 4038
Q 1056 3838 1056 3469
Q 1056 3159 1242 3001
Q 1428 2844 1947 2747
L 2328 2669
Q 3034 2534 3370 2195
Q 3706 1856 3706 1288
Q 3706 609 3251 259
Q 2797 -91 1919 -91
Q 1588 -91 1214 -16
Q 841 59 441 206
L 441 856
Q 825 641 1194 531
Q 1563 422 1919 422
Q 2459 422 2753 634
Q 3047 847 3047 1241
Q 3047 1584 2836 1778
Q 2625 1972 2144 2069
L 1759 2144
Q 1053 2284 737 2584
Q 422 2884 422 3419
Q 422 4038 858 4394
Q 1294 4750 2059 4750
Q 2388 4750 2728 4690
Q 3069 4631 3425 4513
z
" transform="scale(0.015625)"/>
       <path id="DejaVuSans-48" d="M 3597 1894
L 3597 1613
L 953 1613
Q 991 1019 1311 708
Q 1631 397 2203 397
Q 2534 397 2845 478
Q 3156 559 3463 722
L 3463 178
Q 3153 47 2828 -22
Q 2503 -91 2169 -91
Q 1331 -91 842 396
Q 353 884 353 1716
Q 353 2575 817 3079
Q 1281 3584 2069 3584
Q 2775 3584 3186 3129
Q 3597 2675 3597 1894
z
M 3022 2063
Q 3016 2534 2758 2815
Q 2500 3097 2075 3097
Q 1594 3097 1305 2825
Q 1016 2553 972 2059
L 3022 2063
z
" transform="scale(0.015625)"/>
       <path id="DejaVuSans-46" d="M 3122 3366
L 3122 2828
Q 2878 2963 2633 3030
Q 2388 3097 2138 3097
Q 1578 3097 1268 2742
Q 959 2388 959 1747
Q 959 1106 1268 751
Q 1578 397 2138 397
Q 2388 397 2633 464
Q 2878 531 3122 666
L 3122 134
Q 2881 22 2623 -34
Q 2366 -91 2075 -91
Q 1284 -91 818 406
Q 353 903 353 1747
Q 353 2603 823 3093
Q 1294 3584 2113 3584
Q 2378 3584 2631 3529
Q 2884 3475 3122 3366
z
" transform="scale(0.015625)"/>
       <path id="DejaVuSans-57" d="M 1172 4494
L 1172 3500
L 2356 3500
L 2356 3053
L 1172 3053
L 1172 1153
Q 1172 725 1289 603
Q 1406 481 1766 481
L 2356 481
L 2356 0
L 1766 0
Q 1100 0 847 248
Q 594 497 594 1153
L 594 3053
L 172 3053
L 172 3500
L 594 3500
L 594 4494
L 1172 4494
z
" transform="scale(0.015625)"/>
       <path id="DejaVuSans-52" d="M 1959 3097
Q 1497 3097 1228 2736
Q 959 2375 959 1747
Q 959 1119 1226 758
Q 1494 397 1959 397
Q 2419 397 2687 759
Q 2956 1122 2956 1747
Q 2956 2369 2687 2733
Q 2419 3097 1959 3097
z
M 1959 3584
Q 2709 3584 3137 3096
Q 3566 2609 3566 1747
Q 3566 888 3137 398
Q 2709 -91 1959 -91
Q 1206 -91 779 398
Q 353 888 353 1747
Q 353 2609 779 3096
Q 1206 3584 1959 3584
z
" transform="scale(0.015625)"/>
       <path id="DejaVuSans-55" d="M 2631 2963
Q 2534 3019 2420 3045
Q 2306 3072 2169 3072
Q 1681 3072 1420 2755
Q 1159 2438 1159 1844
L 1159 0
L 581 0
L 581 3500
L 1159 3500
L 1159 2956
Q 1341 3275 1631 3429
Q 1922 3584 2338 3584
Q 2397 3584 2469 3576
Q 2541 3569 2628 3553
L 2631 2963
z
" transform="scale(0.015625)"/>
       <path id="DejaVuSans-3" transform="scale(0.015625)"/>
       <path id="DejaVuSans-50" d="M 3328 2828
Q 3544 3216 3844 3400
Q 4144 3584 4550 3584
Q 5097 3584 5394 3201
Q 5691 2819 5691 2113
L 5691 0
L 5113 0
L 5113 2094
Q 5113 2597 4934 2840
Q 4756 3084 4391 3084
Q 3944 3084 3684 2787
Q 3425 2491 3425 1978
L 3425 0
L 2847 0
L 2847 2094
Q 2847 2600 2669 2842
Q 2491 3084 2119 3084
Q 1678 3084 1418 2786
Q 1159 2488 1159 1978
L 1159 0
L 581 0
L 581 3500
L 1159 3500
L 1159 2956
Q 1356 3278 1631 3431
Q 1906 3584 2284 3584
Q 2666 3584 2933 3390
Q 3200 3197 3328 2828
z
" transform="scale(0.015625)"/>
       <path id="DejaVuSans-47" d="M 2906 2969
L 2906 4863
L 3481 4863
L 3481 0
L 2906 0
L 2906 525
Q 2725 213 2448 61
Q 2172 -91 1784 -91
Q 1150 -91 751 415
Q 353 922 353 1747
Q 353 2572 751 3078
Q 1150 3584 1784 3584
Q 2172 3584 2448 3432
Q 2725 3281 2906 2969
z
M 947 1747
Q 947 1113 1208 752
Q 1469 391 1925 391
Q 2381 391 2643 752
Q 2906 1113 2906 1747
Q 2906 2381 2643 2742
Q 2381 3103 1925 3103
Q 1469 3103 1208 2742
Q 947 2381 947 1747
z
" transform="scale(0.015625)"/>
       <path id="DejaVuSans-4c" d="M 603 3500
L 1178 3500
L 1178 0
L 603 0
L 603 3500
z
M 603 4863
L 1178 4863
L 1178 4134
L 603 4134
L 603 4863
z
" transform="scale(0.015625)"/>
       <path id="DejaVuSans-44" d="M 2194 1759
Q 1497 1759 1228 1600
Q 959 1441 959 1056
Q 959 750 1161 570
Q 1363 391 1709 391
Q 2188 391 2477 730
Q 2766 1069 2766 1631
L 2766 1759
L 2194 1759
z
M 3341 1997
L 3341 0
L 2766 0
L 2766 531
Q 2569 213 2275 61
Q 1981 -91 1556 -91
Q 1019 -91 701 211
Q 384 513 384 1019
Q 384 1609 779 1909
Q 1175 2209 1959 2209
L 2766 2209
L 2766 2266
Q 2766 2663 2505 2880
Q 2244 3097 1772 3097
Q 1472 3097 1187 3025
Q 903 2953 641 2809
L 641 3341
Q 956 3463 1253 3523
Q 1550 3584 1831 3584
Q 2591 3584 2966 3190
Q 3341 2797 3341 1997
z
" transform="scale(0.015625)"/>
       <path id="DejaVuSans-51" d="M 3513 2113
L 3513 0
L 2938 0
L 2938 2094
Q 2938 2591 2744 2837
Q 2550 3084 2163 3084
Q 1697 3084 1428 2787
Q 1159 2491 1159 1978
L 1159 0
L 581 0
L 581 3500
L 1159 3500
L 1159 2956
Q 1366 3272 1645 3428
Q 1925 3584 2291 3584
Q 2894 3584 3203 3211
Q 3513 2838 3513 2113
z
" transform="scale(0.015625)"/>
      </defs>
      <use xlink:href="#DejaVuSans-36"/>
      <use xlink:href="#DejaVuSans-48" transform="translate(63.484375 0)"/>
      <use xlink:href="#DejaVuSans-46" transform="translate(125.015625 0)"/>
      <use xlink:href="#DejaVuSans-57" transform="translate(180 0)"/>
      <use xlink:href="#DejaVuSans-52" transform="translate(219.203125 0)"/>
      <use xlink:href="#DejaVuSans-55" transform="translate(280.390625 0)"/>
      <use xlink:href="#DejaVuSans-3" transform="translate(321.5 0)"/>
      <use xlink:href="#DejaVuSans-50" transform="translate(353.28125 0)"/>
      <use xlink:href="#DejaVuSans-48" transform="translate(450.6875 0)"/>
      <use xlink:href="#DejaVuSans-47" transform="translate(512.21875 0)"/>
      <use xlink:href="#DejaVuSans-4c" transform="translate(575.703125 0)"/>
      <use xlink:href="#DejaVuSans-44" transform="translate(603.484375 0)"/>
      <use xlink:href="#DejaVuSans-51" transform="translate(664.765625 0)"/>
     </g>
    </g>
   </g>
   <g id="line2d_16">
    <path d="M 122.204381 208.317542
L 134.735475 205.720198
L 147.26657 198.986122
L 159.935369 187.286265
L 172.604168 217.289212
L 184.997558 214.081507
L 197.528653 216.456837
L 210.197452 210.357893
L 222.866251 191.906625
L 235.259641 177.609847
L 247.790736 188.343845
L 260.459535 219.874141
L 273.128334 181.721121
L 285.521724 197.972098
L 298.052819 205.529616
L 310.721618 202.579649
L 323.390417 212.504969
L 335.921512 196.262624
L 348.452606 212.135753
L 361.121405 197.522951
L 373.790204 215.917312
L 386.183595 193.211601
L 398.714689 210.375677
L 411.383488 211.05266
L 424.052287 209.801733
L 436.445678 212.743291
L 448.976772 200.806755
L 461.645571 200.150927
L 474.31437 204.217296
L 486.707761 218.185128
L 499.238855 200.162228
L 511.907654 222.346829
L 524.576453 232.407147
L 537.107548 196.280529
L 549.638643 212.65058
L 562.307442 176.656265
L 574.976241 160.873229
L 587.369631 202.788735
L 599.900726 195.720353
L 612.569525 191.784504
L 625.238324 165.147079
L 637.631714 110.947006
L 650.162809 81.772533
L 662.831608 106.999464
L 675.500407 209.425921
L 687.893797 173.99305
L 700.424892 177.912826
L 713.093691 204.679642
L 725.76249 162.756736
L 738.293584 197.542504
L 750.824679 179.447132
L 763.493478 172.156555
L 776.162277 183.379939
L 788.555667 180.559252
L 801.086762 203.937674
L 813.755561 120.192848
" clip-path="url(#p717d990cad)" style="fill: none; stroke: #d97706; stroke-width: 2; stroke-linecap: round"/>
   </g>
   <g id="line2d_17">
    <path d="M 122.204381 249.259644
L 134.735475 249.259644
L 147.26657 245.660407
L 159.935369 247.686765
L 172.604168 245.962127
L 184.997558 245.076971
L 197.528653 244.337234
L 210.197452 245.710974
L 222.866251 244.9732
L 235.259641 245.474077
L 247.790736 240.479385
L 260.459535 248.405023
L 273.128334 247.291216
L 285.521724 245.61365
L 298.052819 246.129839
L 310.721618 248.272554
L 323.390417 246.541401
L 335.921512 246.911831
L 348.452606 244.693186
L 361.121405 248.364337
L 373.790204 247.065322
L 386.183595 246.079855
L 398.714689 244.060035
L 411.383488 246.875108
L 424.052287 246.505751
L 436.445678 244.659729
L 448.976772 245.821802
L 461.645571 247.493845
L 474.31437 247.898387
L 486.707761 250.564686
L 499.238855 251.745071
L 511.907654 247.760476
L 524.576453 246.794062
L 537.107548 247.171456
L 549.638643 248.054612
L 562.307442 232.806142
L 574.976241 230.147653
L 587.369631 234.186745
L 599.900726 233.667788
L 612.569525 225.019055
L 625.238324 223.830709
L 637.631714 225.146419
L 650.162809 225.230437
L 662.831608 223.735507
L 675.500407 223.95646
L 687.893797 221.472885
L 700.424892 222.135851
L 713.093691 222.790862
L 725.76249 228.730923
L 738.293584 230.060251
L 750.824679 228.683961
L 763.493478 223.696862
L 776.162277 223.31401
L 788.555667 223.891109
L 801.086762 225.107486
" clip-path="url(#p717d990cad)" style="fill: none; stroke: #2563eb; stroke-width: 2; stroke-linecap: round"/>
   </g>
   <g id="patch_3">
    <path d="M 61.022344 260.243698
L 61.022344 73.273906
" style="fill: none; stroke: #d9e2e8; stroke-width: 1.25; stroke-linejoin: miter; stroke-linecap: square"/>
   </g>
   <g id="patch_4">
    <path d="M 61.022344 260.243698
L 849.6 260.243698
" style="fill: none; stroke: #d9e2e8; stroke-width: 1.25; stroke-linejoin: miter; stroke-linecap: square"/>
   </g>
   <g id="text_9">
    <!-- Interest coverage (TTM) -->
    <g style="fill: #17202a" transform="translate(373.413984 67.273906) scale(0.12 -0.12)">
     <defs>
      <path id="DejaVuSans-Bold-2c" d="M 588 4666
L 1791 4666
L 1791 0
L 588 0
L 588 4666
z
" transform="scale(0.015625)"/>
      <path id="DejaVuSans-Bold-51" d="M 4056 2131
L 4056 0
L 2931 0
L 2931 347
L 2931 1631
Q 2931 2084 2911 2256
Q 2891 2428 2841 2509
Q 2775 2619 2662 2680
Q 2550 2741 2406 2741
Q 2056 2741 1856 2470
Q 1656 2200 1656 1722
L 1656 0
L 538 0
L 538 3500
L 1656 3500
L 1656 2988
Q 1909 3294 2193 3439
Q 2478 3584 2822 3584
Q 3428 3584 3742 3212
Q 4056 2841 4056 2131
z
" transform="scale(0.015625)"/>
      <path id="DejaVuSans-Bold-57" d="M 1759 4494
L 1759 3500
L 2913 3500
L 2913 2700
L 1759 2700
L 1759 1216
Q 1759 972 1856 886
Q 1953 800 2241 800
L 2816 800
L 2816 0
L 1856 0
Q 1194 0 917 276
Q 641 553 641 1216
L 641 2700
L 84 2700
L 84 3500
L 641 3500
L 641 4494
L 1759 4494
z
" transform="scale(0.015625)"/>
      <path id="DejaVuSans-Bold-48" d="M 4031 1759
L 4031 1441
L 1416 1441
Q 1456 1047 1700 850
Q 1944 653 2381 653
Q 2734 653 3104 758
Q 3475 863 3866 1075
L 3866 213
Q 3469 63 3072 -14
Q 2675 -91 2278 -91
Q 1328 -91 801 392
Q 275 875 275 1747
Q 275 2603 792 3093
Q 1309 3584 2216 3584
Q 3041 3584 3536 3087
Q 4031 2591 4031 1759
z
M 2881 2131
Q 2881 2450 2695 2645
Q 2509 2841 2209 2841
Q 1884 2841 1681 2658
Q 1478 2475 1428 2131
L 2881 2131
z
" transform="scale(0.015625)"/>
      <path id="DejaVuSans-Bold-55" d="M 3138 2547
Q 2991 2616 2845 2648
Q 2700 2681 2553 2681
Q 2122 2681 1889 2404
Q 1656 2128 1656 1613
L 1656 0
L 538 0
L 538 3500
L 1656 3500
L 1656 2925
Q 1872 3269 2151 3426
Q 2431 3584 2822 3584
Q 2878 3584 2943 3579
Q 3009 3575 3134 3559
L 3138 2547
z
" transform="scale(0.015625)"/>
      <path id="DejaVuSans-Bold-56" d="M 3272 3391
L 3272 2541
Q 2913 2691 2578 2766
Q 2244 2841 1947 2841
Q 1628 2841 1473 2761
Q 1319 2681 1319 2516
Q 1319 2381 1436 2309
Q 1553 2238 1856 2203
L 2053 2175
Q 2913 2066 3209 1816
Q 3506 1566 3506 1031
Q 3506 472 3093 190
Q 2681 -91 1863 -91
Q 1516 -91 1145 -36
Q 775 19 384 128
L 384 978
Q 719 816 1070 734
Q 1422 653 1784 653
Q 2113 653 2278 743
Q 2444 834 2444 1013
Q 2444 1163 2330 1236
Q 2216 1309 1875 1350
L 1678 1375
Q 931 1469 631 1722
Q 331 1975 331 2491
Q 331 3047 712 3315
Q 1094 3584 1881 3584
Q 2191 3584 2531 3537
Q 2872 3491 3272 3391
z
" transform="scale(0.015625)"/>
      <path id="DejaVuSans-Bold-3" transform="scale(0.015625)"/>
      <path id="DejaVuSans-Bold-46" d="M 3366 3391
L 3366 2478
Q 3138 2634 2908 2709
Q 2678 2784 2431 2784
Q 1963 2784 1702 2511
Q 1441 2238 1441 1747
Q 1441 1256 1702 982
Q 1963 709 2431 709
Q 2694 709 2930 787
Q 3166 866 3366 1019
L 3366 103
Q 3103 6 2833 -42
Q 2563 -91 2291 -91
Q 1344 -91 809 395
Q 275 881 275 1747
Q 275 2613 809 3098
Q 1344 3584 2291 3584
Q 2566 3584 2833 3536
Q 3100 3488 3366 3391
z
" transform="scale(0.015625)"/>
      <path id="DejaVuSans-Bold-52" d="M 2203 2784
Q 1831 2784 1636 2517
Q 1441 2250 1441 1747
Q 1441 1244 1636 976
Q 1831 709 2203 709
Q 2569 709 2762 976
Q 2956 1244 2956 1747
Q 2956 2250 2762 2517
Q 2569 2784 2203 2784
z
M 2203 3584
Q 3106 3584 3614 3096
Q 4122 2609 4122 1747
Q 4122 884 3614 396
Q 3106 -91 2203 -91
Q 1297 -91 786 396
Q 275 884 275 1747
Q 275 2609 786 3096
Q 1297 3584 2203 3584
z
" transform="scale(0.015625)"/>
      <path id="DejaVuSans-Bold-59" d="M 97 3500
L 1216 3500
L 2088 1081
L 2956 3500
L 4078 3500
L 2700 0
L 1472 0
L 97 3500
z
" transform="scale(0.015625)"/>
      <path id="DejaVuSans-Bold-44" d="M 2106 1575
Q 1756 1575 1579 1456
Q 1403 1338 1403 1106
Q 1403 894 1545 773
Q 1688 653 1941 653
Q 2256 653 2472 879
Q 2688 1106 2688 1447
L 2688 1575
L 2106 1575
z
M 3816 1997
L 3816 0
L 2688 0
L 2688 519
Q 2463 200 2181 54
Q 1900 -91 1497 -91
Q 953 -91 614 226
Q 275 544 275 1050
Q 275 1666 698 1953
Q 1122 2241 2028 2241
L 2688 2241
L 2688 2328
Q 2688 2594 2478 2717
Q 2269 2841 1825 2841
Q 1466 2841 1156 2769
Q 847 2697 581 2553
L 581 3406
Q 941 3494 1303 3539
Q 1666 3584 2028 3584
Q 2975 3584 3395 3211
Q 3816 2838 3816 1997
z
" transform="scale(0.015625)"/>
      <path id="DejaVuSans-Bold-4a" d="M 2919 594
Q 2688 288 2409 144
Q 2131 0 1766 0
Q 1125 0 706 504
Q 288 1009 288 1791
Q 288 2575 706 3076
Q 1125 3578 1766 3578
Q 2131 3578 2409 3434
Q 2688 3291 2919 2981
L 2919 3500
L 4044 3500
L 4044 353
Q 4044 -491 3511 -936
Q 2978 -1381 1966 -1381
Q 1638 -1381 1331 -1331
Q 1025 -1281 716 -1178
L 716 -306
Q 1009 -475 1290 -558
Q 1572 -641 1856 -641
Q 2406 -641 2662 -400
Q 2919 -159 2919 353
L 2919 594
z
M 2181 2772
Q 1834 2772 1640 2515
Q 1447 2259 1447 1791
Q 1447 1309 1634 1061
Q 1822 813 2181 813
Q 2531 813 2725 1069
Q 2919 1325 2919 1791
Q 2919 2259 2725 2515
Q 2531 2772 2181 2772
z
" transform="scale(0.015625)"/>
      <path id="DejaVuSans-Bold-b" d="M 2413 -844
L 1484 -844
Q 1006 -72 778 623
Q 550 1319 550 2003
Q 550 2688 779 3389
Q 1009 4091 1484 4856
L 2413 4856
Q 2013 4116 1813 3408
Q 1613 2700 1613 2009
Q 1613 1319 1811 609
Q 2009 -100 2413 -844
z
" transform="scale(0.015625)"/>
      <path id="DejaVuSans-Bold-37" d="M 31 4666
L 4331 4666
L 4331 3756
L 2784 3756
L 2784 0
L 1581 0
L 1581 3756
L 31 3756
L 31 4666
z
" transform="scale(0.015625)"/>
      <path id="DejaVuSans-Bold-30" d="M 588 4666
L 2119 4666
L 3181 2169
L 4250 4666
L 5778 4666
L 5778 0
L 4641 0
L 4641 3413
L 3566 897
L 2803 897
L 1728 3413
L 1728 0
L 588 0
L 588 4666
z
" transform="scale(0.015625)"/>
      <path id="DejaVuSans-Bold-c" d="M 513 -844
Q 913 -100 1113 609
Q 1313 1319 1313 2009
Q 1313 2700 1113 3408
Q 913 4116 513 4856
L 1441 4856
Q 1916 4091 2145 3389
Q 2375 2688 2375 2003
Q 2375 1319 2147 623
Q 1919 -72 1441 -844
L 513 -844
z
" transform="scale(0.015625)"/>
     </defs>
     <use xlink:href="#DejaVuSans-Bold-2c"/>
     <use xlink:href="#DejaVuSans-Bold-51" transform="translate(37.203125 0)"/>
     <use xlink:href="#DejaVuSans-Bold-57" transform="translate(108.390625 0)"/>
     <use xlink:href="#DejaVuSans-Bold-48" transform="translate(156.1875 0)"/>
     <use xlink:href="#DejaVuSans-Bold-55" transform="translate(224.015625 0)"/>
     <use xlink:href="#DejaVuSans-Bold-48" transform="translate(273.328125 0)"/>
     <use xlink:href="#DejaVuSans-Bold-56" transform="translate(341.15625 0)"/>
     <use xlink:href="#DejaVuSans-Bold-57" transform="translate(400.671875 0)"/>
     <use xlink:href="#DejaVuSans-Bold-3" transform="translate(448.46875 0)"/>
     <use xlink:href="#DejaVuSans-Bold-46" transform="translate(483.28125 0)"/>
     <use xlink:href="#DejaVuSans-Bold-52" transform="translate(542.5625 0)"/>
     <use xlink:href="#DejaVuSans-Bold-59" transform="translate(611.265625 0)"/>
     <use xlink:href="#DejaVuSans-Bold-48" transform="translate(676.453125 0)"/>
     <use xlink:href="#DejaVuSans-Bold-55" transform="translate(744.28125 0)"/>
     <use xlink:href="#DejaVuSans-Bold-44" transform="translate(793.59375 0)"/>
     <use xlink:href="#DejaVuSans-Bold-4a" transform="translate(861.078125 0)"/>
     <use xlink:href="#DejaVuSans-Bold-48" transform="translate(932.65625 0)"/>
     <use xlink:href="#DejaVuSans-Bold-3" transform="translate(1000.484375 0)"/>
     <use xlink:href="#DejaVuSans-Bold-b" transform="translate(1035.296875 0)"/>
     <use xlink:href="#DejaVuSans-Bold-37" transform="translate(1081 0)"/>
     <use xlink:href="#DejaVuSans-Bold-37" transform="translate(1151.515625 0)"/>
     <use xlink:href="#DejaVuSans-Bold-30" transform="translate(1219.734375 0)"/>
     <use xlink:href="#DejaVuSans-Bold-c" transform="translate(1319.25 0)"/>
    </g>
   </g>
   <g id="legend_1">
    <g id="line2d_18">
     <path d="M 70.922344 87.682188
L 81.922344 87.682188
L 92.922344 87.682188
" style="fill: none; stroke: #d97706; stroke-width: 2; stroke-linecap: round"/>
    </g>
    <g id="text_10">
     <!-- Consumer Discretionary -->
     <g style="fill: #17202a" transform="translate(101.722344 91.532188) scale(0.11 -0.11)">
      <defs>
       <path id="DejaVuSans-26" d="M 4122 4306
L 4122 3641
Q 3803 3938 3442 4084
Q 3081 4231 2675 4231
Q 1875 4231 1450 3742
Q 1025 3253 1025 2328
Q 1025 1406 1450 917
Q 1875 428 2675 428
Q 3081 428 3442 575
Q 3803 722 4122 1019
L 4122 359
Q 3791 134 3420 21
Q 3050 -91 2638 -91
Q 1578 -91 968 557
Q 359 1206 359 2328
Q 359 3453 968 4101
Q 1578 4750 2638 4750
Q 3056 4750 3426 4639
Q 3797 4528 4122 4306
z
" transform="scale(0.015625)"/>
       <path id="DejaVuSans-56" d="M 2834 3397
L 2834 2853
Q 2591 2978 2328 3040
Q 2066 3103 1784 3103
Q 1356 3103 1142 2972
Q 928 2841 928 2578
Q 928 2378 1081 2264
Q 1234 2150 1697 2047
L 1894 2003
Q 2506 1872 2764 1633
Q 3022 1394 3022 966
Q 3022 478 2636 193
Q 2250 -91 1575 -91
Q 1294 -91 989 -36
Q 684 19 347 128
L 347 722
Q 666 556 975 473
Q 1284 391 1588 391
Q 1994 391 2212 530
Q 2431 669 2431 922
Q 2431 1156 2273 1281
Q 2116 1406 1581 1522
L 1381 1569
Q 847 1681 609 1914
Q 372 2147 372 2553
Q 372 3047 722 3315
Q 1072 3584 1716 3584
Q 2034 3584 2315 3537
Q 2597 3491 2834 3397
z
" transform="scale(0.015625)"/>
       <path id="DejaVuSans-58" d="M 544 1381
L 544 3500
L 1119 3500
L 1119 1403
Q 1119 906 1312 657
Q 1506 409 1894 409
Q 2359 409 2629 706
Q 2900 1003 2900 1516
L 2900 3500
L 3475 3500
L 3475 0
L 2900 0
L 2900 538
Q 2691 219 2414 64
Q 2138 -91 1772 -91
Q 1169 -91 856 284
Q 544 659 544 1381
z
M 1991 3584
L 1991 3584
z
" transform="scale(0.015625)"/>
       <path id="DejaVuSans-27" d="M 1259 4147
L 1259 519
L 2022 519
Q 2988 519 3436 956
Q 3884 1394 3884 2338
Q 3884 3275 3436 3711
Q 2988 4147 2022 4147
L 1259 4147
z
M 628 4666
L 1925 4666
Q 3281 4666 3915 4102
Q 4550 3538 4550 2338
Q 4550 1131 3912 565
Q 3275 0 1925 0
L 628 0
L 628 4666
z
" transform="scale(0.015625)"/>
       <path id="DejaVuSans-5c" d="M 2059 -325
Q 1816 -950 1584 -1140
Q 1353 -1331 966 -1331
L 506 -1331
L 506 -850
L 844 -850
Q 1081 -850 1212 -737
Q 1344 -625 1503 -206
L 1606 56
L 191 3500
L 800 3500
L 1894 763
L 2988 3500
L 3597 3500
L 2059 -325
z
" transform="scale(0.015625)"/>
      </defs>
      <use xlink:href="#DejaVuSans-26"/>
      <use xlink:href="#DejaVuSans-52" transform="translate(69.828125 0)"/>
      <use xlink:href="#DejaVuSans-51" transform="translate(131.015625 0)"/>
      <use xlink:href="#DejaVuSans-56" transform="translate(194.390625 0)"/>
      <use xlink:href="#DejaVuSans-58" transform="translate(246.484375 0)"/>
      <use xlink:href="#DejaVuSans-50" transform="translate(309.859375 0)"/>
      <use xlink:href="#DejaVuSans-48" transform="translate(407.265625 0)"/>
      <use xlink:href="#DejaVuSans-55" transform="translate(468.796875 0)"/>
      <use xlink:href="#DejaVuSans-3" transform="translate(509.90625 0)"/>
      <use xlink:href="#DejaVuSans-27" transform="translate(541.6875 0)"/>
      <use xlink:href="#DejaVuSans-4c" transform="translate(618.6875 0)"/>
      <use xlink:href="#DejaVuSans-56" transform="translate(646.46875 0)"/>
      <use xlink:href="#DejaVuSans-46" transform="translate(698.5625 0)"/>
      <use xlink:href="#DejaVuSans-55" transform="translate(753.546875 0)"/>
      <use xlink:href="#DejaVuSans-48" transform="translate(792.453125 0)"/>
      <use xlink:href="#DejaVuSans-57" transform="translate(853.984375 0)"/>
      <use xlink:href="#DejaVuSans-4c" transform="translate(893.1875 0)"/>
      <use xlink:href="#DejaVuSans-52" transform="translate(920.96875 0)"/>
      <use xlink:href="#DejaVuSans-51" transform="translate(982.15625 0)"/>
      <use xlink:href="#DejaVuSans-44" transform="translate(1045.53125 0)"/>
      <use xlink:href="#DejaVuSans-55" transform="translate(1106.8125 0)"/>
      <use xlink:href="#DejaVuSans-5c" transform="translate(1147.921875 0)"/>
     </g>
    </g>
    <g id="line2d_19">
     <path d="M 256.504375 87.682188
L 267.504375 87.682188
L 278.504375 87.682188
" style="fill: none; stroke: #2563eb; stroke-width: 2; stroke-linecap: round"/>
    </g>
    <g id="text_11">
     <!-- Utilities -->
     <g style="fill: #17202a" transform="translate(287.304375 91.532188) scale(0.11 -0.11)">
      <defs>
       <path id="DejaVuSans-38" d="M 556 4666
L 1191 4666
L 1191 1831
Q 1191 1081 1462 751
Q 1734 422 2344 422
Q 2950 422 3222 751
Q 3494 1081 3494 1831
L 3494 4666
L 4128 4666
L 4128 1753
Q 4128 841 3676 375
Q 3225 -91 2344 -91
Q 1459 -91 1007 375
Q 556 841 556 1753
L 556 4666
z
" transform="scale(0.015625)"/>
       <path id="DejaVuSans-4f" d="M 603 4863
L 1178 4863
L 1178 0
L 603 0
L 603 4863
z
" transform="scale(0.015625)"/>
      </defs>
      <use xlink:href="#DejaVuSans-38"/>
      <use xlink:href="#DejaVuSans-57" transform="translate(73.1875 0)"/>
      <use xlink:href="#DejaVuSans-4c" transform="translate(112.390625 0)"/>
      <use xlink:href="#DejaVuSans-4f" transform="translate(140.171875 0)"/>
      <use xlink:href="#DejaVuSans-4c" transform="translate(167.953125 0)"/>
      <use xlink:href="#DejaVuSans-57" transform="translate(195.734375 0)"/>
      <use xlink:href="#DejaVuSans-4c" transform="translate(234.9375 0)"/>
      <use xlink:href="#DejaVuSans-48" transform="translate(262.71875 0)"/>
      <use xlink:href="#DejaVuSans-56" transform="translate(324.25 0)"/>
     </g>
    </g>
   </g>
  </g>
  <g id="axes_2">
   <g id="patch_5">
    <path d="M 61.022344 475.290677
L 849.6 475.290677
L 849.6 288.320885
L 61.022344 288.320885
z
" style="fill: #ffffff"/>
   </g>
   <g id="matplotlib.axis_3">
    <g id="xtick_9">
     <g id="line2d_20">
      <path d="M 122.204381 475.290677
L 122.204381 288.320885
" clip-path="url(#p463325126f)" style="fill: none; stroke: #d9e2e8; stroke-opacity: 0.45; stroke-width: 0.6; stroke-linecap: round"/>
     </g>
    </g>
    <g id="xtick_10">
     <g id="line2d_21">
      <path d="M 222.866251 475.290677
L 222.866251 288.320885
" clip-path="url(#p463325126f)" style="fill: none; stroke: #d9e2e8; stroke-opacity: 0.45; stroke-width: 0.6; stroke-linecap: round"/>
     </g>
    </g>
    <g id="xtick_11">
     <g id="line2d_22">
      <path d="M 323.390417 475.290677
L 323.390417 288.320885
" clip-path="url(#p463325126f)" style="fill: none; stroke: #d9e2e8; stroke-opacity: 0.45; stroke-width: 0.6; stroke-linecap: round"/>
     </g>
    </g>
    <g id="xtick_12">
     <g id="line2d_23">
      <path d="M 424.052287 475.290677
L 424.052287 288.320885
" clip-path="url(#p463325126f)" style="fill: none; stroke: #d9e2e8; stroke-opacity: 0.45; stroke-width: 0.6; stroke-linecap: round"/>
     </g>
    </g>
    <g id="xtick_13">
     <g id="line2d_24">
      <path d="M 524.576453 475.290677
L 524.576453 288.320885
" clip-path="url(#p463325126f)" style="fill: none; stroke: #d9e2e8; stroke-opacity: 0.45; stroke-width: 0.6; stroke-linecap: round"/>
     </g>
    </g>
    <g id="xtick_14">
     <g id="line2d_25">
      <path d="M 625.238324 475.290677
L 625.238324 288.320885
" clip-path="url(#p463325126f)" style="fill: none; stroke: #d9e2e8; stroke-opacity: 0.45; stroke-width: 0.6; stroke-linecap: round"/>
     </g>
    </g>
    <g id="xtick_15">
     <g id="line2d_26">
      <path d="M 725.76249 475.290677
L 725.76249 288.320885
" clip-path="url(#p463325126f)" style="fill: none; stroke: #d9e2e8; stroke-opacity: 0.45; stroke-width: 0.6; stroke-linecap: round"/>
     </g>
    </g>
    <g id="xtick_16">
     <g id="line2d_27">
      <path d="M 826.42436 475.290677
L 826.42436 288.320885
" clip-path="url(#p463325126f)" style="fill: none; stroke: #d9e2e8; stroke-opacity: 0.45; stroke-width: 0.6; stroke-linecap: round"/>
     </g>
    </g>
   </g>
   <g id="matplotlib.axis_4">
    <g id="ytick_8">
     <g id="line2d_28">
      <path d="M 61.022344 440.171087
L 849.6 440.171087
" clip-path="url(#p463325126f)" style="fill: none; stroke: #d9e2e8; stroke-opacity: 0.25; stroke-width: 0.6; stroke-linecap: round"/>
     </g>
     <g id="text_12">
      <!-- −0.1 -->
      <g style="fill: #17202a" transform="translate(24.81125 444.349798) scale(0.11 -0.11)">
       <defs>
        <path id="DejaVuSans-c9c" d="M 678 2272
L 4684 2272
L 4684 1741
L 678 1741
L 678 2272
z
" transform="scale(0.015625)"/>
        <path id="DejaVuSans-11" d="M 684 794
L 1344 794
L 1344 0
L 684 0
L 684 794
z
" transform="scale(0.015625)"/>
       </defs>
       <use xlink:href="#DejaVuSans-c9c"/>
       <use xlink:href="#DejaVuSans-13" transform="translate(83.796875 0)"/>
       <use xlink:href="#DejaVuSans-11" transform="translate(147.421875 0)"/>
       <use xlink:href="#DejaVuSans-14" transform="translate(179.203125 0)"/>
      </g>
     </g>
    </g>
    <g id="ytick_9">
     <g id="line2d_29">
      <path d="M 61.022344 398.48839
L 849.6 398.48839
" clip-path="url(#p463325126f)" style="fill: none; stroke: #d9e2e8; stroke-opacity: 0.25; stroke-width: 0.6; stroke-linecap: round"/>
     </g>
     <g id="text_13">
      <!-- 0.0 -->
      <g style="fill: #17202a" transform="translate(34.028906 402.667101) scale(0.11 -0.11)">
       <use xlink:href="#DejaVuSans-13"/>
       <use xlink:href="#DejaVuSans-11" transform="translate(63.625 0)"/>
       <use xlink:href="#DejaVuSans-13" transform="translate(95.40625 0)"/>
      </g>
     </g>
    </g>
    <g id="ytick_10">
     <g id="line2d_30">
      <path d="M 61.022344 356.805692
L 849.6 356.805692
" clip-path="url(#p463325126f)" style="fill: none; stroke: #d9e2e8; stroke-opacity: 0.25; stroke-width: 0.6; stroke-linecap: round"/>
     </g>
     <g id="text_14">
      <!-- 0.1 -->
      <g style="fill: #17202a" transform="translate(34.028906 360.984403) scale(0.11 -0.11)">
       <use xlink:href="#DejaVuSans-13"/>
       <use xlink:href="#DejaVuSans-11" transform="translate(63.625 0)"/>
       <use xlink:href="#DejaVuSans-14" transform="translate(95.40625 0)"/>
      </g>
     </g>
    </g>
    <g id="ytick_11">
     <g id="line2d_31">
      <path d="M 61.022344 315.122995
L 849.6 315.122995
" clip-path="url(#p463325126f)" style="fill: none; stroke: #d9e2e8; stroke-opacity: 0.25; stroke-width: 0.6; stroke-linecap: round"/>
     </g>
     <g id="text_15">
      <!-- 0.2 -->
      <g style="fill: #17202a" transform="translate(34.028906 319.301706) scale(0.11 -0.11)">
       <use xlink:href="#DejaVuSans-13"/>
       <use xlink:href="#DejaVuSans-11" transform="translate(63.625 0)"/>
       <use xlink:href="#DejaVuSans-15" transform="translate(95.40625 0)"/>
      </g>
     </g>
    </g>
    <g id="text_16">
     <!-- Sector median -->
     <g style="fill: #17202a" transform="translate(18.408906 418.212812) rotate(-90) scale(0.1 -0.1)">
      <use xlink:href="#DejaVuSans-36"/>
      <use xlink:href="#DejaVuSans-48" transform="translate(63.484375 0)"/>
      <use xlink:href="#DejaVuSans-46" transform="translate(125.015625 0)"/>
      <use xlink:href="#DejaVuSans-57" transform="translate(180 0)"/>
      <use xlink:href="#DejaVuSans-52" transform="translate(219.203125 0)"/>
      <use xlink:href="#DejaVuSans-55" transform="translate(280.390625 0)"/>
      <use xlink:href="#DejaVuSans-3" transform="translate(321.5 0)"/>
      <use xlink:href="#DejaVuSans-50" transform="translate(353.28125 0)"/>
      <use xlink:href="#DejaVuSans-48" transform="translate(450.6875 0)"/>
      <use xlink:href="#DejaVuSans-47" transform="translate(512.21875 0)"/>
      <use xlink:href="#DejaVuSans-4c" transform="translate(575.703125 0)"/>
      <use xlink:href="#DejaVuSans-44" transform="translate(603.484375 0)"/>
      <use xlink:href="#DejaVuSans-51" transform="translate(664.765625 0)"/>
     </g>
    </g>
   </g>
   <g id="line2d_32">
    <path d="M 122.204381 321.972806
L 134.735475 321.215477
L 147.26657 321.215477
L 159.935369 335.335399
L 172.604168 323.420487
L 184.997558 318.545548
L 197.528653 316.162896
L 210.197452 332.232311
L 222.866251 355.21399
L 235.259641 351.392355
L 247.790736 349.942276
L 260.459535 361.698573
L 273.128334 369.092557
L 285.521724 331.577298
L 298.052819 333.276247
L 310.721618 341.241189
L 323.390417 339.111492
L 335.921512 353.989639
L 348.452606 377.154973
L 361.121405 344.284131
L 373.790204 331.345848
L 386.183595 326.631109
L 398.714689 338.046762
L 411.383488 329.58969
L 424.052287 330.888861
L 436.445678 348.464862
L 448.976772 367.790796
L 461.645571 296.819512
L 474.31437 318.493698
L 486.707761 328.686501
L 499.238855 324.779172
L 511.907654 312.25965
L 524.576453 322.991261
L 537.107548 321.475416
L 549.638643 310.026886
L 562.307442 340.591365
L 574.976241 347.489643
L 587.369631 341.284512
L 599.900726 339.72708
L 612.569525 368.910971
L 625.238324 370.199325
L 637.631714 366.744483
L 650.162809 375.176441
L 662.831608 376.138613
L 675.500407 367.914632
L 687.893797 382.753856
L 700.424892 393.804964
L 713.093691 383.4968
L 725.76249 374.649204
L 738.293584 364.584528
L 750.824679 365.115692
L 763.493478 380.619693
L 776.162277 384.807388
L 788.555667 385.508348
L 801.086762 385.160861
L 813.755561 389.406603
" clip-path="url(#p463325126f)" style="fill: none; stroke: #d97706; stroke-width: 2; stroke-linecap: round"/>
   </g>
   <g id="line2d_33">
    <path d="M 122.204381 408.241471
L 134.735475 408.241471
L 147.26657 406.821585
L 159.935369 398.601552
L 172.604168 395.522014
L 184.997558 395.823218
L 197.528653 381.046677
L 210.197452 402.711568
L 222.866251 398.601552
L 235.259641 398.599928
L 247.790736 398.600714
L 260.459535 378.268385
L 273.128334 396.657907
L 285.521724 388.175039
L 298.052819 384.922045
L 310.721618 379.563422
L 323.390417 382.515501
L 335.921512 375.702975
L 348.452606 379.7054
L 361.121405 394.88033
L 373.790204 415.865154
L 386.183595 446.468989
L 398.714689 436.189079
L 411.383488 387.171656
L 424.052287 383.940094
L 436.445678 383.304621
L 448.976772 384.290585
L 461.645571 399.433576
L 474.31437 412.037902
L 486.707761 417.281388
L 499.238855 418.843842
L 511.907654 402.311442
L 524.576453 406.067725
L 537.107548 416.091263
L 549.638643 415.991596
L 562.307442 420.891564
L 574.976241 434.834432
L 587.369631 431.470769
L 599.900726 433.153061
L 612.569525 417.90772
L 625.238324 426.673971
L 637.631714 429.41702
L 650.162809 425.698723
L 662.831608 436.621119
L 675.500407 429.160962
L 687.893797 427.206818
L 700.424892 434.177315
L 713.093691 438.211212
L 725.76249 452.778381
L 738.293584 460.740737
L 750.824679 466.79205
L 763.493478 436.470082
L 776.162277 431.02361
L 788.555667 441.266843
L 801.086762 433.650032
" clip-path="url(#p463325126f)" style="fill: none; stroke: #2563eb; stroke-width: 2; stroke-linecap: round"/>
   </g>
   <g id="patch_6">
    <path d="M 61.022344 475.290677
L 61.022344 288.320885
" style="fill: none; stroke: #d9e2e8; stroke-width: 1.25; stroke-linejoin: miter; stroke-linecap: square"/>
   </g>
   <g id="patch_7">
    <path d="M 61.022344 475.290677
L 849.6 475.290677
" style="fill: none; stroke: #d9e2e8; stroke-width: 1.25; stroke-linejoin: miter; stroke-linecap: square"/>
   </g>
   <g id="text_17">
    <!-- Free-cash-flow margin (TTM) -->
    <g style="fill: #17202a" transform="translate(358.116797 282.320885) scale(0.12 -0.12)">
     <defs>
      <path id="DejaVuSans-Bold-29" d="M 588 4666
L 3834 4666
L 3834 3756
L 1791 3756
L 1791 2888
L 3713 2888
L 3713 1978
L 1791 1978
L 1791 0
L 588 0
L 588 4666
z
" transform="scale(0.015625)"/>
      <path id="DejaVuSans-Bold-10" d="M 347 2297
L 2309 2297
L 2309 1388
L 347 1388
L 347 2297
z
" transform="scale(0.015625)"/>
      <path id="DejaVuSans-Bold-4b" d="M 4056 2131
L 4056 0
L 2931 0
L 2931 347
L 2931 1625
Q 2931 2084 2911 2256
Q 2891 2428 2841 2509
Q 2775 2619 2662 2680
Q 2550 2741 2406 2741
Q 2056 2741 1856 2470
Q 1656 2200 1656 1722
L 1656 0
L 538 0
L 538 4863
L 1656 4863
L 1656 2988
Q 1909 3294 2193 3439
Q 2478 3584 2822 3584
Q 3428 3584 3742 3212
Q 4056 2841 4056 2131
z
" transform="scale(0.015625)"/>
      <path id="DejaVuSans-Bold-13ac" d="M 1984 4863
L 4206 4863
L 4206 0
L 3078 0
L 3078 4128
L 2222 4128
Q 1984 4128 1890 4042
Q 1797 3956 1797 3744
L 1797 3500
L 2675 3500
L 2675 2700
L 1797 2700
L 1797 0
L 678 0
L 678 2700
L 122 2700
L 122 3500
L 678 3500
L 678 3744
Q 678 4316 997 4589
Q 1316 4863 1984 4863
z
" transform="scale(0.015625)"/>
      <path id="DejaVuSans-Bold-5a" d="M 225 3500
L 1313 3500
L 1900 1088
L 2491 3500
L 3425 3500
L 4013 1113
L 4603 3500
L 5691 3500
L 4769 0
L 3547 0
L 2956 2406
L 2369 0
L 1147 0
L 225 3500
z
" transform="scale(0.015625)"/>
      <path id="DejaVuSans-Bold-50" d="M 3781 2919
Q 3994 3244 4286 3414
Q 4578 3584 4928 3584
Q 5531 3584 5847 3212
Q 6163 2841 6163 2131
L 6163 0
L 5038 0
L 5038 1825
Q 5041 1866 5042 1909
Q 5044 1953 5044 2034
Q 5044 2406 4934 2573
Q 4825 2741 4581 2741
Q 4263 2741 4089 2478
Q 3916 2216 3909 1719
L 3909 0
L 2784 0
L 2784 1825
Q 2784 2406 2684 2573
Q 2584 2741 2328 2741
Q 2006 2741 1831 2477
Q 1656 2213 1656 1722
L 1656 0
L 531 0
L 531 3500
L 1656 3500
L 1656 2988
Q 1863 3284 2130 3434
Q 2397 3584 2719 3584
Q 3081 3584 3359 3409
Q 3638 3234 3781 2919
z
" transform="scale(0.015625)"/>
      <path id="DejaVuSans-Bold-4c" d="M 538 3500
L 1656 3500
L 1656 0
L 538 0
L 538 3500
z
M 538 4863
L 1656 4863
L 1656 3950
L 538 3950
L 538 4863
z
" transform="scale(0.015625)"/>
     </defs>
     <use xlink:href="#DejaVuSans-Bold-29"/>
     <use xlink:href="#DejaVuSans-Bold-55" transform="translate(61.921875 0)"/>
     <use xlink:href="#DejaVuSans-Bold-48" transform="translate(111.234375 0)"/>
     <use xlink:href="#DejaVuSans-Bold-48" transform="translate(179.0625 0)"/>
     <use xlink:href="#DejaVuSans-Bold-10" transform="translate(246.890625 0)"/>
     <use xlink:href="#DejaVuSans-Bold-46" transform="translate(288.390625 0)"/>
     <use xlink:href="#DejaVuSans-Bold-44" transform="translate(347.671875 0)"/>
     <use xlink:href="#DejaVuSans-Bold-56" transform="translate(415.15625 0)"/>
     <use xlink:href="#DejaVuSans-Bold-4b" transform="translate(474.671875 0)"/>
     <use xlink:href="#DejaVuSans-Bold-10" transform="translate(545.859375 0)"/>
     <use xlink:href="#DejaVuSans-Bold-13ac" transform="translate(587.359375 0)"/>
     <use xlink:href="#DejaVuSans-Bold-52" transform="translate(661.484375 0)"/>
     <use xlink:href="#DejaVuSans-Bold-5a" transform="translate(730.1875 0)"/>
     <use xlink:href="#DejaVuSans-Bold-3" transform="translate(822.578125 0)"/>
     <use xlink:href="#DejaVuSans-Bold-50" transform="translate(857.390625 0)"/>
     <use xlink:href="#DejaVuSans-Bold-44" transform="translate(961.59375 0)"/>
     <use xlink:href="#DejaVuSans-Bold-55" transform="translate(1029.078125 0)"/>
     <use xlink:href="#DejaVuSans-Bold-4a" transform="translate(1078.390625 0)"/>
     <use xlink:href="#DejaVuSans-Bold-4c" transform="translate(1149.96875 0)"/>
     <use xlink:href="#DejaVuSans-Bold-51" transform="translate(1184.25 0)"/>
     <use xlink:href="#DejaVuSans-Bold-3" transform="translate(1255.4375 0)"/>
     <use xlink:href="#DejaVuSans-Bold-b" transform="translate(1290.25 0)"/>
     <use xlink:href="#DejaVuSans-Bold-37" transform="translate(1335.953125 0)"/>
     <use xlink:href="#DejaVuSans-Bold-37" transform="translate(1406.46875 0)"/>
     <use xlink:href="#DejaVuSans-Bold-30" transform="translate(1474.6875 0)"/>
     <use xlink:href="#DejaVuSans-Bold-c" transform="translate(1574.203125 0)"/>
    </g>
   </g>
  </g>
  <g id="axes_3">
   <g id="patch_8">
    <path d="M 61.022344 690.337656
L 849.6 690.337656
L 849.6 503.367865
L 61.022344 503.367865
z
" style="fill: #ffffff"/>
   </g>
   <g id="matplotlib.axis_5">
    <g id="xtick_17">
     <g id="line2d_34">
      <path d="M 122.204381 690.337656
L 122.204381 503.367865
" clip-path="url(#p08e3e4ade8)" style="fill: none; stroke: #d9e2e8; stroke-opacity: 0.45; stroke-width: 0.6; stroke-linecap: round"/>
     </g>
     <g id="text_18">
      <!-- 2012 -->
      <g style="fill: #17202a" transform="translate(108.206881 708.195078) scale(0.11 -0.11)">
       <use xlink:href="#DejaVuSans-15"/>
       <use xlink:href="#DejaVuSans-13" transform="translate(63.625 0)"/>
       <use xlink:href="#DejaVuSans-14" transform="translate(127.25 0)"/>
       <use xlink:href="#DejaVuSans-15" transform="translate(190.875 0)"/>
      </g>
     </g>
    </g>
    <g id="xtick_18">
     <g id="line2d_35">
      <path d="M 222.866251 690.337656
L 222.866251 503.367865
" clip-path="url(#p08e3e4ade8)" style="fill: none; stroke: #d9e2e8; stroke-opacity: 0.45; stroke-width: 0.6; stroke-linecap: round"/>
     </g>
     <g id="text_19">
      <!-- 2014 -->
      <g style="fill: #17202a" transform="translate(208.868751 708.195078) scale(0.11 -0.11)">
       <use xlink:href="#DejaVuSans-15"/>
       <use xlink:href="#DejaVuSans-13" transform="translate(63.625 0)"/>
       <use xlink:href="#DejaVuSans-14" transform="translate(127.25 0)"/>
       <use xlink:href="#DejaVuSans-17" transform="translate(190.875 0)"/>
      </g>
     </g>
    </g>
    <g id="xtick_19">
     <g id="line2d_36">
      <path d="M 323.390417 690.337656
L 323.390417 503.367865
" clip-path="url(#p08e3e4ade8)" style="fill: none; stroke: #d9e2e8; stroke-opacity: 0.45; stroke-width: 0.6; stroke-linecap: round"/>
     </g>
     <g id="text_20">
      <!-- 2016 -->
      <g style="fill: #17202a" transform="translate(309.392917 708.195078) scale(0.11 -0.11)">
       <use xlink:href="#DejaVuSans-15"/>
       <use xlink:href="#DejaVuSans-13" transform="translate(63.625 0)"/>
       <use xlink:href="#DejaVuSans-14" transform="translate(127.25 0)"/>
       <use xlink:href="#DejaVuSans-19" transform="translate(190.875 0)"/>
      </g>
     </g>
    </g>
    <g id="xtick_20">
     <g id="line2d_37">
      <path d="M 424.052287 690.337656
L 424.052287 503.367865
" clip-path="url(#p08e3e4ade8)" style="fill: none; stroke: #d9e2e8; stroke-opacity: 0.45; stroke-width: 0.6; stroke-linecap: round"/>
     </g>
     <g id="text_21">
      <!-- 2018 -->
      <g style="fill: #17202a" transform="translate(410.054787 708.195078) scale(0.11 -0.11)">
       <use xlink:href="#DejaVuSans-15"/>
       <use xlink:href="#DejaVuSans-13" transform="translate(63.625 0)"/>
       <use xlink:href="#DejaVuSans-14" transform="translate(127.25 0)"/>
       <use xlink:href="#DejaVuSans-1b" transform="translate(190.875 0)"/>
      </g>
     </g>
    </g>
    <g id="xtick_21">
     <g id="line2d_38">
      <path d="M 524.576453 690.337656
L 524.576453 503.367865
" clip-path="url(#p08e3e4ade8)" style="fill: none; stroke: #d9e2e8; stroke-opacity: 0.45; stroke-width: 0.6; stroke-linecap: round"/>
     </g>
     <g id="text_22">
      <!-- 2020 -->
      <g style="fill: #17202a" transform="translate(510.578953 708.195078) scale(0.11 -0.11)">
       <use xlink:href="#DejaVuSans-15"/>
       <use xlink:href="#DejaVuSans-13" transform="translate(63.625 0)"/>
       <use xlink:href="#DejaVuSans-15" transform="translate(127.25 0)"/>
       <use xlink:href="#DejaVuSans-13" transform="translate(190.875 0)"/>
      </g>
     </g>
    </g>
    <g id="xtick_22">
     <g id="line2d_39">
      <path d="M 625.238324 690.337656
L 625.238324 503.367865
" clip-path="url(#p08e3e4ade8)" style="fill: none; stroke: #d9e2e8; stroke-opacity: 0.45; stroke-width: 0.6; stroke-linecap: round"/>
     </g>
     <g id="text_23">
      <!-- 2022 -->
      <g style="fill: #17202a" transform="translate(611.240824 708.195078) scale(0.11 -0.11)">
       <use xlink:href="#DejaVuSans-15"/>
       <use xlink:href="#DejaVuSans-13" transform="translate(63.625 0)"/>
       <use xlink:href="#DejaVuSans-15" transform="translate(127.25 0)"/>
       <use xlink:href="#DejaVuSans-15" transform="translate(190.875 0)"/>
      </g>
     </g>
    </g>
    <g id="xtick_23">
     <g id="line2d_40">
      <path d="M 725.76249 690.337656
L 725.76249 503.367865
" clip-path="url(#p08e3e4ade8)" style="fill: none; stroke: #d9e2e8; stroke-opacity: 0.45; stroke-width: 0.6; stroke-linecap: round"/>
     </g>
     <g id="text_24">
      <!-- 2024 -->
      <g style="fill: #17202a" transform="translate(711.76499 708.195078) scale(0.11 -0.11)">
       <use xlink:href="#DejaVuSans-15"/>
       <use xlink:href="#DejaVuSans-13" transform="translate(63.625 0)"/>
       <use xlink:href="#DejaVuSans-15" transform="translate(127.25 0)"/>
       <use xlink:href="#DejaVuSans-17" transform="translate(190.875 0)"/>
      </g>
     </g>
    </g>
    <g id="xtick_24">
     <g id="line2d_41">
      <path d="M 826.42436 690.337656
L 826.42436 503.367865
" clip-path="url(#p08e3e4ade8)" style="fill: none; stroke: #d9e2e8; stroke-opacity: 0.45; stroke-width: 0.6; stroke-linecap: round"/>
     </g>
     <g id="text_25">
      <!-- 2026 -->
      <g style="fill: #17202a" transform="translate(812.42686 708.195078) scale(0.11 -0.11)">
       <use xlink:href="#DejaVuSans-15"/>
       <use xlink:href="#DejaVuSans-13" transform="translate(63.625 0)"/>
       <use xlink:href="#DejaVuSans-15" transform="translate(127.25 0)"/>
       <use xlink:href="#DejaVuSans-19" transform="translate(190.875 0)"/>
      </g>
     </g>
    </g>
    <g id="text_26">
     <!-- Fiscal period-end calendar quarter -->
     <g style="fill: #17202a" transform="translate(369.387734 722.436094) scale(0.1 -0.1)">
      <defs>
       <path id="DejaVuSans-29" d="M 628 4666
L 3309 4666
L 3309 4134
L 1259 4134
L 1259 2759
L 3109 2759
L 3109 2228
L 1259 2228
L 1259 0
L 628 0
L 628 4666
z
" transform="scale(0.015625)"/>
       <path id="DejaVuSans-53" d="M 1159 525
L 1159 -1331
L 581 -1331
L 581 3500
L 1159 3500
L 1159 2969
Q 1341 3281 1617 3432
Q 1894 3584 2278 3584
Q 2916 3584 3314 3078
Q 3713 2572 3713 1747
Q 3713 922 3314 415
Q 2916 -91 2278 -91
Q 1894 -91 1617 61
Q 1341 213 1159 525
z
M 3116 1747
Q 3116 2381 2855 2742
Q 2594 3103 2138 3103
Q 1681 3103 1420 2742
Q 1159 2381 1159 1747
Q 1159 1113 1420 752
Q 1681 391 2138 391
Q 2594 391 2855 752
Q 3116 1113 3116 1747
z
" transform="scale(0.015625)"/>
       <path id="DejaVuSans-10" d="M 313 2009
L 1997 2009
L 1997 1497
L 313 1497
L 313 2009
z
" transform="scale(0.015625)"/>
       <path id="DejaVuSans-54" d="M 947 1747
Q 947 1113 1208 752
Q 1469 391 1925 391
Q 2381 391 2643 752
Q 2906 1113 2906 1747
Q 2906 2381 2643 2742
Q 2381 3103 1925 3103
Q 1469 3103 1208 2742
Q 947 2381 947 1747
z
M 2906 525
Q 2725 213 2448 61
Q 2172 -91 1784 -91
Q 1150 -91 751 415
Q 353 922 353 1747
Q 353 2572 751 3078
Q 1150 3584 1784 3584
Q 2172 3584 2448 3432
Q 2725 3281 2906 2969
L 2906 3500
L 3481 3500
L 3481 -1331
L 2906 -1331
L 2906 525
z
" transform="scale(0.015625)"/>
      </defs>
      <use xlink:href="#DejaVuSans-29"/>
      <use xlink:href="#DejaVuSans-4c" transform="translate(50.234375 0)"/>
      <use xlink:href="#DejaVuSans-56" transform="translate(78.015625 0)"/>
      <use xlink:href="#DejaVuSans-46" transform="translate(130.109375 0)"/>
      <use xlink:href="#DejaVuSans-44" transform="translate(185.09375 0)"/>
      <use xlink:href="#DejaVuSans-4f" transform="translate(246.375 0)"/>
      <use xlink:href="#DejaVuSans-3" transform="translate(274.15625 0)"/>
      <use xlink:href="#DejaVuSans-53" transform="translate(305.9375 0)"/>
      <use xlink:href="#DejaVuSans-48" transform="translate(369.421875 0)"/>
      <use xlink:href="#DejaVuSans-55" transform="translate(430.953125 0)"/>
      <use xlink:href="#DejaVuSans-4c" transform="translate(472.0625 0)"/>
      <use xlink:href="#DejaVuSans-52" transform="translate(499.84375 0)"/>
      <use xlink:href="#DejaVuSans-47" transform="translate(561.03125 0)"/>
      <use xlink:href="#DejaVuSans-10" transform="translate(624.515625 0)"/>
      <use xlink:href="#DejaVuSans-48" transform="translate(660.59375 0)"/>
      <use xlink:href="#DejaVuSans-51" transform="translate(722.125 0)"/>
      <use xlink:href="#DejaVuSans-47" transform="translate(785.5 0)"/>
      <use xlink:href="#DejaVuSans-3" transform="translate(848.984375 0)"/>
      <use xlink:href="#DejaVuSans-46" transform="translate(880.765625 0)"/>
      <use xlink:href="#DejaVuSans-44" transform="translate(935.75 0)"/>
      <use xlink:href="#DejaVuSans-4f" transform="translate(997.03125 0)"/>
      <use xlink:href="#DejaVuSans-48" transform="translate(1024.8125 0)"/>
      <use xlink:href="#DejaVuSans-51" transform="translate(1086.34375 0)"/>
      <use xlink:href="#DejaVuSans-47" transform="translate(1149.71875 0)"/>
      <use xlink:href="#DejaVuSans-44" transform="translate(1213.203125 0)"/>
      <use xlink:href="#DejaVuSans-55" transform="translate(1274.484375 0)"/>
      <use xlink:href="#DejaVuSans-3" transform="translate(1315.59375 0)"/>
      <use xlink:href="#DejaVuSans-54" transform="translate(1347.375 0)"/>
      <use xlink:href="#DejaVuSans-58" transform="translate(1410.859375 0)"/>
      <use xlink:href="#DejaVuSans-44" transform="translate(1474.234375 0)"/>
      <use xlink:href="#DejaVuSans-55" transform="translate(1535.515625 0)"/>
      <use xlink:href="#DejaVuSans-57" transform="translate(1576.625 0)"/>
      <use xlink:href="#DejaVuSans-48" transform="translate(1615.828125 0)"/>
      <use xlink:href="#DejaVuSans-55" transform="translate(1677.359375 0)"/>
     </g>
    </g>
   </g>
   <g id="matplotlib.axis_6">
    <g id="ytick_12">
     <g id="line2d_42">
      <path d="M 61.022344 667.379282
L 849.6 667.379282
" clip-path="url(#p08e3e4ade8)" style="fill: none; stroke: #d9e2e8; stroke-opacity: 0.25; stroke-width: 0.6; stroke-linecap: round"/>
     </g>
     <g id="text_27">
      <!-- 0.15 -->
      <g style="fill: #17202a" transform="translate(27.030156 671.557993) scale(0.11 -0.11)">
       <defs>
        <path id="DejaVuSans-18" d="M 691 4666
L 3169 4666
L 3169 4134
L 1269 4134
L 1269 2991
Q 1406 3038 1543 3061
Q 1681 3084 1819 3084
Q 2600 3084 3056 2656
Q 3513 2228 3513 1497
Q 3513 744 3044 326
Q 2575 -91 1722 -91
Q 1428 -91 1123 -41
Q 819 9 494 109
L 494 744
Q 775 591 1075 516
Q 1375 441 1709 441
Q 2250 441 2565 725
Q 2881 1009 2881 1497
Q 2881 1984 2565 2268
Q 2250 2553 1709 2553
Q 1456 2553 1204 2497
Q 953 2441 691 2322
L 691 4666
z
" transform="scale(0.015625)"/>
       </defs>
       <use xlink:href="#DejaVuSans-13"/>
       <use xlink:href="#DejaVuSans-11" transform="translate(63.625 0)"/>
       <use xlink:href="#DejaVuSans-14" transform="translate(95.40625 0)"/>
       <use xlink:href="#DejaVuSans-18" transform="translate(159.03125 0)"/>
      </g>
     </g>
    </g>
    <g id="ytick_13">
     <g id="line2d_43">
      <path d="M 61.022344 637.721662
L 849.6 637.721662
" clip-path="url(#p08e3e4ade8)" style="fill: none; stroke: #d9e2e8; stroke-opacity: 0.25; stroke-width: 0.6; stroke-linecap: round"/>
     </g>
     <g id="text_28">
      <!-- 0.20 -->
      <g style="fill: #17202a" transform="translate(27.030156 641.900373) scale(0.11 -0.11)">
       <use xlink:href="#DejaVuSans-13"/>
       <use xlink:href="#DejaVuSans-11" transform="translate(63.625 0)"/>
       <use xlink:href="#DejaVuSans-15" transform="translate(95.40625 0)"/>
       <use xlink:href="#DejaVuSans-13" transform="translate(159.03125 0)"/>
      </g>
     </g>
    </g>
    <g id="ytick_14">
     <g id="line2d_44">
      <path d="M 61.022344 608.064042
L 849.6 608.064042
" clip-path="url(#p08e3e4ade8)" style="fill: none; stroke: #d9e2e8; stroke-opacity: 0.25; stroke-width: 0.6; stroke-linecap: round"/>
     </g>
     <g id="text_29">
      <!-- 0.25 -->
      <g style="fill: #17202a" transform="translate(27.030156 612.242753) scale(0.11 -0.11)">
       <use xlink:href="#DejaVuSans-13"/>
       <use xlink:href="#DejaVuSans-11" transform="translate(63.625 0)"/>
       <use xlink:href="#DejaVuSans-15" transform="translate(95.40625 0)"/>
       <use xlink:href="#DejaVuSans-18" transform="translate(159.03125 0)"/>
      </g>
     </g>
    </g>
    <g id="ytick_15">
     <g id="line2d_45">
      <path d="M 61.022344 578.406422
L 849.6 578.406422
" clip-path="url(#p08e3e4ade8)" style="fill: none; stroke: #d9e2e8; stroke-opacity: 0.25; stroke-width: 0.6; stroke-linecap: round"/>
     </g>
     <g id="text_30">
      <!-- 0.30 -->
      <g style="fill: #17202a" transform="translate(27.030156 582.585133) scale(0.11 -0.11)">
       <defs>
        <path id="DejaVuSans-16" d="M 2597 2516
Q 3050 2419 3304 2112
Q 3559 1806 3559 1356
Q 3559 666 3084 287
Q 2609 -91 1734 -91
Q 1441 -91 1130 -33
Q 819 25 488 141
L 488 750
Q 750 597 1062 519
Q 1375 441 1716 441
Q 2309 441 2620 675
Q 2931 909 2931 1356
Q 2931 1769 2642 2001
Q 2353 2234 1838 2234
L 1294 2234
L 1294 2753
L 1863 2753
Q 2328 2753 2575 2939
Q 2822 3125 2822 3475
Q 2822 3834 2567 4026
Q 2313 4219 1838 4219
Q 1578 4219 1281 4162
Q 984 4106 628 3988
L 628 4550
Q 988 4650 1302 4700
Q 1616 4750 1894 4750
Q 2613 4750 3031 4423
Q 3450 4097 3450 3541
Q 3450 3153 3228 2886
Q 3006 2619 2597 2516
z
" transform="scale(0.015625)"/>
       </defs>
       <use xlink:href="#DejaVuSans-13"/>
       <use xlink:href="#DejaVuSans-11" transform="translate(63.625 0)"/>
       <use xlink:href="#DejaVuSans-16" transform="translate(95.40625 0)"/>
       <use xlink:href="#DejaVuSans-13" transform="translate(159.03125 0)"/>
      </g>
     </g>
    </g>
    <g id="ytick_16">
     <g id="line2d_46">
      <path d="M 61.022344 548.748802
L 849.6 548.748802
" clip-path="url(#p08e3e4ade8)" style="fill: none; stroke: #d9e2e8; stroke-opacity: 0.25; stroke-width: 0.6; stroke-linecap: round"/>
     </g>
     <g id="text_31">
      <!-- 0.35 -->
      <g style="fill: #17202a" transform="translate(27.030156 552.927513) scale(0.11 -0.11)">
       <use xlink:href="#DejaVuSans-13"/>
       <use xlink:href="#DejaVuSans-11" transform="translate(63.625 0)"/>
       <use xlink:href="#DejaVuSans-16" transform="translate(95.40625 0)"/>
       <use xlink:href="#DejaVuSans-18" transform="translate(159.03125 0)"/>
      </g>
     </g>
    </g>
    <g id="ytick_17">
     <g id="line2d_47">
      <path d="M 61.022344 519.091182
L 849.6 519.091182
" clip-path="url(#p08e3e4ade8)" style="fill: none; stroke: #d9e2e8; stroke-opacity: 0.25; stroke-width: 0.6; stroke-linecap: round"/>
     </g>
     <g id="text_32">
      <!-- 0.40 -->
      <g style="fill: #17202a" transform="translate(27.030156 523.269893) scale(0.11 -0.11)">
       <use xlink:href="#DejaVuSans-13"/>
       <use xlink:href="#DejaVuSans-11" transform="translate(63.625 0)"/>
       <use xlink:href="#DejaVuSans-17" transform="translate(95.40625 0)"/>
       <use xlink:href="#DejaVuSans-13" transform="translate(159.03125 0)"/>
      </g>
     </g>
    </g>
    <g id="text_33">
     <!-- Sector median -->
     <g style="fill: #17202a" transform="translate(20.627813 633.259792) rotate(-90) scale(0.1 -0.1)">
      <use xlink:href="#DejaVuSans-36"/>
      <use xlink:href="#DejaVuSans-48" transform="translate(63.484375 0)"/>
      <use xlink:href="#DejaVuSans-46" transform="translate(125.015625 0)"/>
      <use xlink:href="#DejaVuSans-57" transform="translate(180 0)"/>
      <use xlink:href="#DejaVuSans-52" transform="translate(219.203125 0)"/>
      <use xlink:href="#DejaVuSans-55" transform="translate(280.390625 0)"/>
      <use xlink:href="#DejaVuSans-3" transform="translate(321.5 0)"/>
      <use xlink:href="#DejaVuSans-50" transform="translate(353.28125 0)"/>
      <use xlink:href="#DejaVuSans-48" transform="translate(450.6875 0)"/>
      <use xlink:href="#DejaVuSans-47" transform="translate(512.21875 0)"/>
      <use xlink:href="#DejaVuSans-4c" transform="translate(575.703125 0)"/>
      <use xlink:href="#DejaVuSans-44" transform="translate(603.484375 0)"/>
      <use xlink:href="#DejaVuSans-51" transform="translate(664.765625 0)"/>
     </g>
    </g>
   </g>
   <g id="line2d_48">
    <path d="M 96.866783 572.710862
L 109.535582 572.710862
L 122.204381 639.792266
L 134.735475 643.586889
L 147.26657 641.689577
L 159.935369 637.469631
L 172.604168 635.900294
L 184.997558 641.166326
L 197.528653 662.783463
L 210.197452 660.469394
L 222.866251 643.372438
L 235.259641 620.979671
L 247.790736 632.255153
L 260.459535 624.976268
L 273.128334 626.251114
L 285.521724 628.778432
L 298.052819 634.397528
L 310.721618 624.514368
L 323.390417 603.818214
L 335.921512 603.818214
L 348.452606 635.049698
L 361.121405 634.702894
L 373.790204 617.844507
L 386.183595 612.228612
L 398.714689 616.805583
L 411.383488 621.939984
L 424.052287 624.898901
L 436.445678 627.905279
L 448.976772 631.618545
L 461.645571 629.518365
L 474.31437 613.167853
L 486.707761 622.002964
L 499.238855 613.167853
L 511.907654 633.201174
L 524.576453 635.420296
L 537.107548 636.83771
L 549.638643 632.447405
L 562.307442 621.643055
L 574.976241 594.708277
L 587.369631 609.379355
L 599.900726 626.298298
L 612.569525 579.266907
L 625.238324 601.025033
L 637.631714 603.724993
L 650.162809 603.724993
L 662.831608 598.526015
L 675.500407 643.162864
L 687.893797 615.74639
L 700.424892 607.0912
L 713.093691 620.688803
L 725.76249 606.512857
L 738.293584 623.065059
L 750.824679 623.065059
L 763.493478 613.945187
L 776.162277 601.442973
L 788.555667 598.776684
L 801.086762 632.171921
L 813.755561 681.839029
" clip-path="url(#p08e3e4ade8)" style="fill: none; stroke: #d97706; stroke-width: 2; stroke-linecap: round"/>
   </g>
   <g id="line2d_49">
    <path d="M 109.535582 568.497849
L 122.204381 576.843174
L 134.735475 575.962724
L 147.26657 576.843174
L 159.935369 577.599492
L 172.604168 578.117805
L 184.997558 571.192102
L 197.528653 576.580678
L 210.197452 571.168589
L 222.866251 568.726762
L 235.259641 569.605285
L 247.790736 568.726762
L 260.459535 570.385579
L 273.128334 572.781701
L 285.521724 571.382146
L 298.052819 573.280787
L 310.721618 565.924234
L 323.390417 568.803703
L 335.921512 566.310325
L 348.452606 567.104236
L 361.121405 575.033433
L 373.790204 574.671404
L 386.183595 574.520504
L 398.714689 572.923692
L 411.383488 564.351555
L 424.052287 563.657809
L 436.445678 558.733306
L 448.976772 558.733306
L 461.645571 561.432919
L 474.31437 568.101639
L 486.707761 567.366062
L 499.238855 569.573784
L 511.907654 554.455178
L 524.576453 565.330605
L 537.107548 563.839059
L 549.638643 566.616761
L 562.307442 553.282583
L 574.976241 553.476815
L 587.369631 553.476815
L 599.900726 549.969418
L 612.569525 542.497139
L 625.238324 541.915649
L 637.631714 536.160435
L 650.162809 539.795439
L 662.831608 539.372114
L 675.500407 538.064835
L 687.893797 535.636877
L 700.424892 541.001527
L 713.093691 533.882114
L 725.76249 527.208463
L 738.293584 527.208463
L 750.824679 529.911548
L 763.493478 520.830983
L 776.162277 511.866491
L 788.555667 512.946809
L 801.086762 511.866491
" clip-path="url(#p08e3e4ade8)" style="fill: none; stroke: #2563eb; stroke-width: 2; stroke-linecap: round"/>
   </g>
   <g id="patch_9">
    <path d="M 61.022344 690.337656
L 61.022344 503.367865
" style="fill: none; stroke: #d9e2e8; stroke-width: 1.25; stroke-linejoin: miter; stroke-linecap: square"/>
   </g>
   <g id="patch_10">
    <path d="M 61.022344 690.337656
L 849.6 690.337656
" style="fill: none; stroke: #d9e2e8; stroke-width: 1.25; stroke-linejoin: miter; stroke-linecap: square"/>
   </g>
   <g id="text_34">
    <!-- Total debt to assets -->
    <g style="fill: #17202a" transform="translate(388.436484 497.367865) scale(0.12 -0.12)">
     <defs>
      <path id="DejaVuSans-Bold-4f" d="M 538 4863
L 1656 4863
L 1656 0
L 538 0
L 538 4863
z
" transform="scale(0.015625)"/>
      <path id="DejaVuSans-Bold-47" d="M 2919 2988
L 2919 4863
L 4044 4863
L 4044 0
L 2919 0
L 2919 506
Q 2688 197 2409 53
Q 2131 -91 1766 -91
Q 1119 -91 703 423
Q 288 938 288 1747
Q 288 2556 703 3070
Q 1119 3584 1766 3584
Q 2128 3584 2408 3439
Q 2688 3294 2919 2988
z
M 2181 722
Q 2541 722 2730 984
Q 2919 1247 2919 1747
Q 2919 2247 2730 2509
Q 2541 2772 2181 2772
Q 1825 2772 1636 2509
Q 1447 2247 1447 1747
Q 1447 1247 1636 984
Q 1825 722 2181 722
z
" transform="scale(0.015625)"/>
      <path id="DejaVuSans-Bold-45" d="M 2400 722
Q 2759 722 2948 984
Q 3138 1247 3138 1747
Q 3138 2247 2948 2509
Q 2759 2772 2400 2772
Q 2041 2772 1848 2508
Q 1656 2244 1656 1747
Q 1656 1250 1848 986
Q 2041 722 2400 722
z
M 1656 2988
Q 1888 3294 2169 3439
Q 2450 3584 2816 3584
Q 3463 3584 3878 3070
Q 4294 2556 4294 1747
Q 4294 938 3878 423
Q 3463 -91 2816 -91
Q 2450 -91 2169 54
Q 1888 200 1656 506
L 1656 0
L 538 0
L 538 4863
L 1656 4863
L 1656 2988
z
" transform="scale(0.015625)"/>
     </defs>
     <use xlink:href="#DejaVuSans-Bold-37"/>
     <use xlink:href="#DejaVuSans-Bold-52" transform="translate(54.9375 0)"/>
     <use xlink:href="#DejaVuSans-Bold-57" transform="translate(123.640625 0)"/>
     <use xlink:href="#DejaVuSans-Bold-44" transform="translate(171.4375 0)"/>
     <use xlink:href="#DejaVuSans-Bold-4f" transform="translate(238.921875 0)"/>
     <use xlink:href="#DejaVuSans-Bold-3" transform="translate(273.203125 0)"/>
     <use xlink:href="#DejaVuSans-Bold-47" transform="translate(308.015625 0)"/>
     <use xlink:href="#DejaVuSans-Bold-48" transform="translate(379.59375 0)"/>
     <use xlink:href="#DejaVuSans-Bold-45" transform="translate(447.421875 0)"/>
     <use xlink:href="#DejaVuSans-Bold-57" transform="translate(519 0)"/>
     <use xlink:href="#DejaVuSans-Bold-3" transform="translate(566.796875 0)"/>
     <use xlink:href="#DejaVuSans-Bold-57" transform="translate(601.609375 0)"/>
     <use xlink:href="#DejaVuSans-Bold-52" transform="translate(649.40625 0)"/>
     <use xlink:href="#DejaVuSans-Bold-3" transform="translate(718.109375 0)"/>
     <use xlink:href="#DejaVuSans-Bold-44" transform="translate(752.921875 0)"/>
     <use xlink:href="#DejaVuSans-Bold-56" transform="translate(820.40625 0)"/>
     <use xlink:href="#DejaVuSans-Bold-56" transform="translate(879.921875 0)"/>
     <use xlink:href="#DejaVuSans-Bold-48" transform="translate(939.4375 0)"/>
     <use xlink:href="#DejaVuSans-Bold-57" transform="translate(1007.265625 0)"/>
     <use xlink:href="#DejaVuSans-Bold-56" transform="translate(1055.0625 0)"/>
    </g>
   </g>
  </g>
  <g id="text_35">
   <!-- Corporate Financial Deterioration | Sector KPI trajectories -->
   <g style="fill: #17202a" transform="translate(7.2 17.899063) scale(0.14 -0.14)">
    <defs>
     <path id="DejaVuSans-5f" d="M 1344 4891
L 1344 -1509
L 813 -1509
L 813 4891
L 1344 4891
z
" transform="scale(0.015625)"/>
     <path id="DejaVuSans-2e" d="M 628 4666
L 1259 4666
L 1259 2694
L 3353 4666
L 4166 4666
L 1850 2491
L 4331 0
L 3500 0
L 1259 2247
L 1259 0
L 628 0
L 628 4666
z
" transform="scale(0.015625)"/>
     <path id="DejaVuSans-33" d="M 1259 4147
L 1259 2394
L 2053 2394
Q 2494 2394 2734 2622
Q 2975 2850 2975 3272
Q 2975 3691 2734 3919
Q 2494 4147 2053 4147
L 1259 4147
z
M 628 4666
L 2053 4666
Q 2838 4666 3239 4311
Q 3641 3956 3641 3272
Q 3641 2581 3239 2228
Q 2838 1875 2053 1875
L 1259 1875
L 1259 0
L 628 0
L 628 4666
z
" transform="scale(0.015625)"/>
     <path id="DejaVuSans-2c" d="M 628 4666
L 1259 4666
L 1259 0
L 628 0
L 628 4666
z
" transform="scale(0.015625)"/>
     <path id="DejaVuSans-4d" d="M 603 3500
L 1178 3500
L 1178 -63
Q 1178 -731 923 -1031
Q 669 -1331 103 -1331
L -116 -1331
L -116 -844
L 38 -844
Q 366 -844 484 -692
Q 603 -541 603 -63
L 603 3500
z
M 603 4863
L 1178 4863
L 1178 4134
L 603 4134
L 603 4863
z
" transform="scale(0.015625)"/>
    </defs>
    <use xlink:href="#DejaVuSans-26"/>
    <use xlink:href="#DejaVuSans-52" transform="translate(69.828125 0)"/>
    <use xlink:href="#DejaVuSans-55" transform="translate(131.015625 0)"/>
    <use xlink:href="#DejaVuSans-53" transform="translate(172.125 0)"/>
    <use xlink:href="#DejaVuSans-52" transform="translate(235.609375 0)"/>
    <use xlink:href="#DejaVuSans-55" transform="translate(296.796875 0)"/>
    <use xlink:href="#DejaVuSans-44" transform="translate(337.90625 0)"/>
    <use xlink:href="#DejaVuSans-57" transform="translate(399.1875 0)"/>
    <use xlink:href="#DejaVuSans-48" transform="translate(438.390625 0)"/>
    <use xlink:href="#DejaVuSans-3" transform="translate(499.921875 0)"/>
    <use xlink:href="#DejaVuSans-29" transform="translate(531.703125 0)"/>
    <use xlink:href="#DejaVuSans-4c" transform="translate(581.9375 0)"/>
    <use xlink:href="#DejaVuSans-51" transform="translate(609.71875 0)"/>
    <use xlink:href="#DejaVuSans-44" transform="translate(673.09375 0)"/>
    <use xlink:href="#DejaVuSans-51" transform="translate(734.375 0)"/>
    <use xlink:href="#DejaVuSans-46" transform="translate(797.75 0)"/>
    <use xlink:href="#DejaVuSans-4c" transform="translate(852.734375 0)"/>
    <use xlink:href="#DejaVuSans-44" transform="translate(880.515625 0)"/>
    <use xlink:href="#DejaVuSans-4f" transform="translate(941.796875 0)"/>
    <use xlink:href="#DejaVuSans-3" transform="translate(969.578125 0)"/>
    <use xlink:href="#DejaVuSans-27" transform="translate(1001.359375 0)"/>
    <use xlink:href="#DejaVuSans-48" transform="translate(1078.359375 0)"/>
    <use xlink:href="#DejaVuSans-57" transform="translate(1139.890625 0)"/>
    <use xlink:href="#DejaVuSans-48" transform="translate(1179.09375 0)"/>
    <use xlink:href="#DejaVuSans-55" transform="translate(1240.625 0)"/>
    <use xlink:href="#DejaVuSans-4c" transform="translate(1281.734375 0)"/>
    <use xlink:href="#DejaVuSans-52" transform="translate(1309.515625 0)"/>
    <use xlink:href="#DejaVuSans-55" transform="translate(1370.703125 0)"/>
    <use xlink:href="#DejaVuSans-44" transform="translate(1411.8125 0)"/>
    <use xlink:href="#DejaVuSans-57" transform="translate(1473.09375 0)"/>
    <use xlink:href="#DejaVuSans-4c" transform="translate(1512.296875 0)"/>
    <use xlink:href="#DejaVuSans-52" transform="translate(1540.078125 0)"/>
    <use xlink:href="#DejaVuSans-51" transform="translate(1601.265625 0)"/>
    <use xlink:href="#DejaVuSans-3" transform="translate(1664.640625 0)"/>
    <use xlink:href="#DejaVuSans-5f" transform="translate(1696.421875 0)"/>
    <use xlink:href="#DejaVuSans-3" transform="translate(1730.109375 0)"/>
    <use xlink:href="#DejaVuSans-36" transform="translate(1761.890625 0)"/>
    <use xlink:href="#DejaVuSans-48" transform="translate(1825.375 0)"/>
    <use xlink:href="#DejaVuSans-46" transform="translate(1886.90625 0)"/>
    <use xlink:href="#DejaVuSans-57" transform="translate(1941.890625 0)"/>
    <use xlink:href="#DejaVuSans-52" transform="translate(1981.09375 0)"/>
    <use xlink:href="#DejaVuSans-55" transform="translate(2042.28125 0)"/>
    <use xlink:href="#DejaVuSans-3" transform="translate(2083.390625 0)"/>
    <use xlink:href="#DejaVuSans-2e" transform="translate(2115.171875 0)"/>
    <use xlink:href="#DejaVuSans-33" transform="translate(2180.75 0)"/>
    <use xlink:href="#DejaVuSans-2c" transform="translate(2241.046875 0)"/>
    <use xlink:href="#DejaVuSans-3" transform="translate(2270.546875 0)"/>
    <use xlink:href="#DejaVuSans-57" transform="translate(2302.328125 0)"/>
    <use xlink:href="#DejaVuSans-55" transform="translate(2341.53125 0)"/>
    <use xlink:href="#DejaVuSans-44" transform="translate(2382.640625 0)"/>
    <use xlink:href="#DejaVuSans-4d" transform="translate(2443.921875 0)"/>
    <use xlink:href="#DejaVuSans-48" transform="translate(2471.703125 0)"/>
    <use xlink:href="#DejaVuSans-46" transform="translate(2533.234375 0)"/>
    <use xlink:href="#DejaVuSans-57" transform="translate(2588.21875 0)"/>
    <use xlink:href="#DejaVuSans-52" transform="translate(2627.421875 0)"/>
    <use xlink:href="#DejaVuSans-55" transform="translate(2688.609375 0)"/>
    <use xlink:href="#DejaVuSans-4c" transform="translate(2729.71875 0)"/>
    <use xlink:href="#DejaVuSans-48" transform="translate(2757.5 0)"/>
    <use xlink:href="#DejaVuSans-56" transform="translate(2819.03125 0)"/>
   </g>
  </g>
 </g>
 <defs>
  <clipPath id="p717d990cad">
   <rect x="61.022344" y="73.273906" width="788.577656" height="186.969792"/>
  </clipPath>
  <clipPath id="p463325126f">
   <rect x="61.022344" y="288.320885" width="788.577656" height="186.969792"/>
  </clipPath>
  <clipPath id="p08e3e4ade8">
   <rect x="61.022344" y="503.367865" width="788.577656" height="186.969792"/>
  </clipPath>
 </defs>
</svg>
